REM DIRINDEX 1\2,1\3
REM DIRNAME cjc143,folder01,folder02
TITLE ""
FILE "2000 phrasesTrack02.mp3" MP3
  TRACK 01 AUDIO
    TITLE "2:cjc143_0042"
    INDEX 01 00:00:00
  TRACK 02 AUDIO
    TITLE "0:"
    INDEX 01 00:00:62
  TRACK 03 AUDIO
    TITLE "2:cjc143_0043"
    INDEX 01 00:01:32
  TRACK 04 AUDIO
    TITLE "0:"
    INDEX 01 00:02:65
  TRACK 05 AUDIO
    TITLE "2:cjc143_0044"
    INDEX 01 00:03:12
  TRACK 06 AUDIO
    TITLE "0:"
    INDEX 01 00:04:33
  TRACK 07 AUDIO
    TITLE "2:cjc143_0045"
    INDEX 01 00:04:46
  TRACK 08 AUDIO
    TITLE "0:"
    INDEX 01 00:06:35
  TRACK 09 AUDIO
    TITLE "2:cjc143_0046"
    INDEX 01 00:06:51
  TRACK 10 AUDIO
    TITLE "0:"
    INDEX 01 00:08:28
  TRACK 11 AUDIO
    TITLE "2:cjc143_0047"
    INDEX 01 00:08:42
  TRACK 12 AUDIO
    TITLE "0:"
    INDEX 01 00:09:73
  TRACK 13 AUDIO
    TITLE "2:cjc143_0048"
    INDEX 01 00:10:14
  TRACK 14 AUDIO
    TITLE "0:"
    INDEX 01 00:12:32
  TRACK 15 AUDIO
    TITLE "2:cjc143_0049"
    INDEX 01 00:12:48
  TRACK 16 AUDIO
    TITLE "0:"
    INDEX 01 00:14:17
  TRACK 17 AUDIO
    TITLE "2:cjc143_0050"
    INDEX 01 00:14:33
  TRACK 18 AUDIO
    TITLE "0:"
    INDEX 01 00:16:32
  TRACK 19 AUDIO
    TITLE "2:cjc143_0051"
    INDEX 01 00:16:49
  TRACK 20 AUDIO
    TITLE "0:"
    INDEX 01 00:19:48
  TRACK 21 AUDIO
    TITLE "2:cjc143_0052"
    INDEX 01 00:19:62
  TRACK 22 AUDIO
    TITLE "0:"
    INDEX 01 00:22:01
  TRACK 23 AUDIO
    TITLE "2:cjc143_0053"
    INDEX 01 00:22:15
  TRACK 24 AUDIO
    TITLE "0:"
    INDEX 01 00:23:61
  TRACK 25 AUDIO
    TITLE "2:cjc143_0054"
    INDEX 01 00:24:06
  TRACK 26 AUDIO
    TITLE "0:"
    INDEX 01 00:25:62
  TRACK 27 AUDIO
    TITLE "2:cjc143_0055"
    INDEX 01 00:26:05
  TRACK 28 AUDIO
    TITLE "0:"
    INDEX 01 00:27:47
  TRACK 29 AUDIO
    TITLE "2:cjc143_0056"
    INDEX 01 00:27:67
  TRACK 30 AUDIO
    TITLE "0:"
    INDEX 01 00:29:38
  TRACK 31 AUDIO
    TITLE "2:cjc143_0057"
    INDEX 01 00:30:22
  TRACK 32 AUDIO
    TITLE "0:"
    INDEX 01 00:32:66
  TRACK 33 AUDIO
    TITLE "2:cjc143_0058"
    INDEX 01 00:33:05
  TRACK 34 AUDIO
    TITLE "0:"
    INDEX 01 00:35:29
  TRACK 35 AUDIO
    TITLE "2:cjc143_0059"
    INDEX 01 00:35:51
  TRACK 36 AUDIO
    TITLE "0:"
    INDEX 01 00:38:00
  TRACK 37 AUDIO
    TITLE "2:cjc143_0060"
    INDEX 01 00:38:18
  TRACK 38 AUDIO
    TITLE "0:"
    INDEX 01 00:39:58
  TRACK 39 AUDIO
    TITLE "2:cjc143_0061"
    INDEX 01 00:40:03
  TRACK 40 AUDIO
    TITLE "0:"
    INDEX 01 00:41:69
  TRACK 41 AUDIO
    TITLE "2:cjc143_0062"
    INDEX 01 00:42:10
  TRACK 42 AUDIO
    TITLE "0:"
    INDEX 01 00:43:44
  TRACK 43 AUDIO
    TITLE "2:cjc143_0063"
    INDEX 01 00:44:20
  TRACK 44 AUDIO
    TITLE "0:"
    INDEX 01 00:46:07
  TRACK 45 AUDIO
    TITLE "2:cjc143_0064"
    INDEX 01 00:46:23
  TRACK 46 AUDIO
    TITLE "0:"
    INDEX 01 00:48:16
  TRACK 47 AUDIO
    TITLE "2:cjc143_0065"
    INDEX 01 00:48:34
  TRACK 48 AUDIO
    TITLE "0:"
    INDEX 01 00:50:50
  TRACK 49 AUDIO
    TITLE "2:cjc143_0066"
    INDEX 01 00:50:66
  TRACK 50 AUDIO
    TITLE "0:"
    INDEX 01 00:52:63
  TRACK 51 AUDIO
    TITLE "2:cjc143_0067"
    INDEX 01 00:53:17
  TRACK 52 AUDIO
    TITLE "0:"
    INDEX 01 00:55:08
  TRACK 53 AUDIO
    TITLE "2:cjc143_0068"
    INDEX 01 00:55:22
  TRACK 54 AUDIO
    TITLE "0:"
    INDEX 01 00:57:11
  TRACK 55 AUDIO
    TITLE "2:cjc143_0069"
    INDEX 01 00:57:27
  TRACK 56 AUDIO
    TITLE "0:"
    INDEX 01 00:59:20
  TRACK 57 AUDIO
    TITLE "2:cjc143_0070"
    INDEX 01 00:59:47
  TRACK 58 AUDIO
    TITLE "0:"
    INDEX 01 01:01:31
  TRACK 59 AUDIO
    TITLE "2:cjc143_0071"
    INDEX 01 01:01:50
  TRACK 60 AUDIO
    TITLE "0:"
    INDEX 01 01:03:43
  TRACK 61 AUDIO
    TITLE "2:cjc143_0072"
    INDEX 01 01:03:63
  TRACK 62 AUDIO
    TITLE "0:"
    INDEX 01 01:06:26
  TRACK 63 AUDIO
    TITLE "2:cjc143_0073"
    INDEX 01 01:06:47
  TRACK 64 AUDIO
    TITLE "0:"
    INDEX 01 01:08:27
